# Blender 4.4.3
# www.blender.org
mtllib Untitled.mtl
o Text
v 1.000000 0.040000 0.000000
v 1.000000 0.040000 -0.333333
v 1.333333 0.040000 -0.333333
v 1.333333 0.040000 -0.250000
v 1.416667 0.040000 -0.250000
v 1.416667 0.040000 0.000000
v 1.250000 0.040000 0.000000
v 1.250000 0.040000 -0.250000
v 1.166667 0.040000 -0.250000
v 1.166667 0.040000 0.000000
v 0.583333 0.040000 0.000000
v 0.583333 0.040000 -0.083333
v 0.500000 0.040000 -0.083333
v 0.500000 0.040000 -0.250000
v 0.583333 0.040000 -0.250000
v 0.583333 0.040000 -0.333333
v 0.916667 0.040000 -0.333333
v 0.916667 0.040000 -0.166667
v 0.833333 0.040000 -0.166667
v 0.833333 0.040000 -0.083333
v 0.916667 0.040000 -0.083333
v 0.916667 0.040000 0.000000
v 0.666667 0.040000 -0.246667
v 0.666667 0.040000 -0.166667
v 0.750000 0.040000 -0.166667
v 0.750000 0.040000 -0.246667
v 0.083333 0.040000 -0.166667
v 0.166667 0.040000 -0.166667
v 0.166667 0.040000 -0.250000
v 0.000000 0.040000 -0.250000
v 0.000000 0.040000 -0.333333
v 0.416667 0.040000 -0.333333
v 0.416667 0.040000 -0.250000
v 0.333333 0.040000 -0.250000
v 0.333333 0.040000 -0.166667
v 0.250000 0.040000 -0.166667
v 0.250000 0.040000 -0.083333
v 0.416667 0.040000 -0.083333
v 0.416667 0.040000 0.000000
v 0.000000 0.040000 0.000000
v 0.000000 0.040000 -0.083333
v 0.083333 0.040000 -0.083333
v 1.000000 -0.040000 0.000000
v 1.000000 -0.040000 -0.333333
v 1.333333 -0.040000 -0.333333
v 1.333333 -0.040000 -0.250000
v 1.416667 -0.040000 -0.250000
v 1.416667 -0.040000 0.000000
v 1.250000 -0.040000 0.000000
v 1.250000 -0.040000 -0.250000
v 1.166667 -0.040000 -0.250000
v 1.166667 -0.040000 0.000000
v 0.583333 -0.040000 0.000000
v 0.583333 -0.040000 -0.083333
v 0.500000 -0.040000 -0.083333
v 0.500000 -0.040000 -0.250000
v 0.583333 -0.040000 -0.250000
v 0.583333 -0.040000 -0.333333
v 0.916667 -0.040000 -0.333333
v 0.916667 -0.040000 -0.166667
v 0.833333 -0.040000 -0.166667
v 0.833333 -0.040000 -0.083333
v 0.916667 -0.040000 -0.083333
v 0.916667 -0.040000 0.000000
v 0.666667 -0.040000 -0.246667
v 0.666667 -0.040000 -0.166667
v 0.750000 -0.040000 -0.166667
v 0.750000 -0.040000 -0.246667
v 0.083333 -0.040000 -0.166667
v 0.166667 -0.040000 -0.166667
v 0.166667 -0.040000 -0.250000
v 0.000000 -0.040000 -0.250000
v 0.000000 -0.040000 -0.333333
v 0.416667 -0.040000 -0.333333
v 0.416667 -0.040000 -0.250000
v 0.333333 -0.040000 -0.250000
v 0.333333 -0.040000 -0.166667
v 0.250000 -0.040000 -0.166667
v 0.250000 -0.040000 -0.083333
v 0.416667 -0.040000 -0.083333
v 0.416667 -0.040000 0.000000
v 0.000000 -0.040000 0.000000
v 0.000000 -0.040000 -0.083333
v 0.083333 -0.040000 -0.083333
v 0.083333 -0.040000 -0.166667
v 0.083333 0.040000 -0.166667
v 0.166667 -0.040000 -0.166667
v 0.166667 0.040000 -0.166667
v 0.166667 -0.040000 -0.250000
v 0.166667 0.040000 -0.250000
v 0.000000 -0.040000 -0.250000
v 0.000000 0.040000 -0.250000
v 0.000000 -0.040000 -0.333333
v 0.000000 0.040000 -0.333333
v 0.416667 -0.040000 -0.333333
v 0.416667 0.040000 -0.333333
v 0.416667 -0.040000 -0.250000
v 0.416667 0.040000 -0.250000
v 0.333333 -0.040000 -0.250000
v 0.333333 0.040000 -0.250000
v 0.333333 -0.040000 -0.166667
v 0.333333 0.040000 -0.166667
v 0.250000 -0.040000 -0.166667
v 0.250000 0.040000 -0.166667
v 0.250000 -0.040000 -0.083333
v 0.250000 0.040000 -0.083333
v 0.416667 -0.040000 -0.083333
v 0.416667 0.040000 -0.083333
v 0.416667 -0.040000 0.000000
v 0.416667 0.040000 0.000000
v 0.000000 -0.040000 0.000000
v 0.000000 0.040000 0.000000
v 0.000000 -0.040000 -0.083333
v 0.000000 0.040000 -0.083333
v 0.083333 -0.040000 -0.083333
v 0.083333 0.040000 -0.083333
v 0.583333 -0.040000 0.000000
v 0.583333 0.040000 0.000000
v 0.583333 -0.040000 -0.083333
v 0.583333 0.040000 -0.083333
v 0.500000 -0.040000 -0.083333
v 0.500000 0.040000 -0.083333
v 0.500000 -0.040000 -0.250000
v 0.500000 0.040000 -0.250000
v 0.583333 -0.040000 -0.250000
v 0.583333 0.040000 -0.250000
v 0.583333 -0.040000 -0.333333
v 0.583333 0.040000 -0.333333
v 0.916667 -0.040000 -0.333333
v 0.916667 0.040000 -0.333333
v 0.916667 -0.040000 -0.166667
v 0.916667 0.040000 -0.166667
v 0.833333 -0.040000 -0.166667
v 0.833333 0.040000 -0.166667
v 0.833333 -0.040000 -0.083333
v 0.833333 0.040000 -0.083333
v 0.916667 -0.040000 -0.083333
v 0.916667 0.040000 -0.083333
v 0.916667 -0.040000 0.000000
v 0.916667 0.040000 0.000000
v 0.666667 -0.040000 -0.246667
v 0.666667 0.040000 -0.246667
v 0.666667 -0.040000 -0.166667
v 0.666667 0.040000 -0.166667
v 0.750000 -0.040000 -0.166667
v 0.750000 0.040000 -0.166667
v 0.750000 -0.040000 -0.246667
v 0.750000 0.040000 -0.246667
v 1.000000 -0.040000 0.000000
v 1.000000 0.040000 0.000000
v 1.000000 -0.040000 -0.333333
v 1.000000 0.040000 -0.333333
v 1.333333 -0.040000 -0.333333
v 1.333333 0.040000 -0.333333
v 1.333333 -0.040000 -0.250000
v 1.333333 0.040000 -0.250000
v 1.416667 -0.040000 -0.250000
v 1.416667 0.040000 -0.250000
v 1.416667 -0.040000 0.000000
v 1.416667 0.040000 0.000000
v 1.250000 -0.040000 0.000000
v 1.250000 0.040000 0.000000
v 1.250000 -0.040000 -0.250000
v 1.250000 0.040000 -0.250000
v 1.166667 -0.040000 -0.250000
v 1.166667 0.040000 -0.250000
v 1.166667 -0.040000 0.000000
v 1.166667 0.040000 0.000000
vn -0.0000 1.0000 -0.0000
vn -0.0000 -1.0000 -0.0000
vn -0.7071 -0.0000 -0.7071
vn -0.7071 -0.0000 0.7071
vn 0.7071 -0.0000 -0.7071
vn 0.7071 -0.0000 0.7071
vt 0.000000 0.000000
vt 0.888889 0.000000
vt 0.111111 0.000000
vt 0.222222 0.000000
vt 0.333333 0.000000
vt 1.000000 0.000000
vt 0.777778 0.000000
vt 0.666667 0.000000
vt 0.444444 0.000000
vt 0.555556 0.000000
vt 0.266667 0.000000
vt 0.400000 0.000000
vt 0.466667 0.000000
vt 0.133333 0.000000
vt 0.200000 0.000000
vt 0.800000 0.000000
vt 0.866667 0.000000
vt 0.933333 0.000000
vt 0.533333 0.000000
vt 0.600000 0.000000
vt 0.066667 0.000000
vt 0.733333 0.000000
vt 0.000000 1.000000
vt 0.062500 1.000000
vt 0.062500 0.000000
vt 0.125000 1.000000
vt 0.125000 0.000000
vt 0.187500 1.000000
vt 0.187500 0.000000
vt 0.250000 1.000000
vt 0.250000 0.000000
vt 0.312500 1.000000
vt 0.312500 0.000000
vt 0.375000 1.000000
vt 0.375000 0.000000
vt 0.437500 1.000000
vt 0.437500 0.000000
vt 0.500000 1.000000
vt 0.500000 0.000000
vt 0.562500 1.000000
vt 0.562500 0.000000
vt 0.625000 1.000000
vt 0.625000 0.000000
vt 0.687500 1.000000
vt 0.687500 0.000000
vt 0.750000 1.000000
vt 0.750000 0.000000
vt 0.812500 1.000000
vt 0.812500 0.000000
vt 0.875000 1.000000
vt 0.875000 0.000000
vt 0.937500 1.000000
vt 0.937500 0.000000
vt 1.000000 1.000000
vt 0.083333 1.000000
vt 0.083333 0.000000
vt 0.166667 1.000000
vt 0.166667 0.000000
vt 0.333333 1.000000
vt 0.416667 1.000000
vt 0.416667 0.000000
vt 0.583333 1.000000
vt 0.583333 0.000000
vt 0.666667 1.000000
vt 0.833333 1.000000
vt 0.833333 0.000000
vt 0.916667 1.000000
vt 0.916667 0.000000
vt 0.100000 1.000000
vt 0.100000 0.000000
vt 0.200000 1.000000
vt 0.300000 1.000000
vt 0.300000 0.000000
vt 0.400000 1.000000
vt 0.600000 1.000000
vt 0.700000 1.000000
vt 0.700000 0.000000
vt 0.800000 1.000000
vt 0.900000 1.000000
vt 0.900000 0.000000
s 0
f 1/1/1 9/2/1 2/3/1
f 9/2/1 3/4/1 2/3/1
f 9/2/1 4/5/1 3/4/1
f 1/1/1 10/6/1 9/2/1
f 8/7/1 4/5/1 9/2/1
f 7/8/1 4/5/1 8/7/1
f 7/8/1 5/9/1 4/5/1
f 7/8/1 6/10/1 5/9/1
f 15/11/1 17/12/1 16/5/1
f 15/11/1 26/6/1 17/12/1
f 26/6/1 18/13/1 17/12/1
f 13/14/1 15/11/1 14/15/1
f 13/14/1 23/16/1 15/11/1
f 23/16/1 26/6/1 15/11/1
f 13/14/1 24/17/1 23/16/1
f 25/18/1 18/13/1 26/6/1
f 13/14/1 25/18/1 24/17/1
f 13/14/1 19/19/1 25/18/1
f 19/19/1 18/13/1 25/18/1
f 13/14/1 20/20/1 19/19/1
f 12/21/2 20/20/2 13/14/2
f 11/1/1 20/20/1 12/21/1
f 11/1/1 21/8/1 20/20/1
f 11/1/1 22/22/1 21/8/1
f 30/15/1 32/5/1 31/11/1
f 30/15/1 33/12/1 32/5/1
f 29/14/1 33/12/1 30/15/1
f 28/21/1 34/13/1 29/14/1
f 34/13/1 33/12/1 29/14/1
f 28/21/1 35/19/1 34/13/1
f 42/6/1 28/21/1 27/1/1
f 42/6/1 36/20/1 28/21/1
f 36/20/1 35/19/1 28/21/1
f 42/6/1 37/8/1 36/20/1
f 40/17/1 42/6/1 41/18/1
f 40/17/1 37/8/1 42/6/1
f 40/17/1 38/22/1 37/8/1
f 40/17/1 39/16/1 38/22/1
f 43/1/2 44/3/2 51/2/2
f 51/2/2 44/3/2 45/4/2
f 51/2/2 45/4/2 46/5/2
f 43/1/2 51/2/2 52/6/2
f 50/7/1 51/2/1 46/5/1
f 49/8/2 50/7/2 46/5/2
f 49/8/2 46/5/2 47/9/2
f 49/8/2 47/9/2 48/10/2
f 57/11/2 58/5/2 59/12/2
f 57/11/2 59/12/2 68/6/2
f 68/6/2 59/12/2 60/13/2
f 55/14/2 56/15/2 57/11/2
f 55/14/2 57/11/2 65/16/2
f 65/16/2 57/11/2 68/6/2
f 55/14/2 65/16/2 66/17/2
f 67/18/2 68/6/2 60/13/2
f 55/14/2 66/17/2 67/18/2
f 55/14/2 67/18/2 61/19/2
f 61/19/1 67/18/1 60/13/1
f 55/14/2 61/19/2 62/20/2
f 54/21/1 55/14/1 62/20/1
f 53/1/2 54/21/2 62/20/2
f 53/1/2 62/20/2 63/8/2
f 53/1/2 63/8/2 64/22/2
f 72/15/2 73/11/2 74/5/2
f 72/15/2 74/5/2 75/12/2
f 71/14/1 72/15/1 75/12/1
f 70/21/2 71/14/2 76/13/2
f 76/13/1 71/14/1 75/12/1
f 70/21/2 76/13/2 77/19/2
f 84/6/2 69/1/2 70/21/2
f 84/6/2 70/21/2 78/20/2
f 78/20/1 70/21/1 77/19/1
f 84/6/2 78/20/2 79/8/2
f 82/17/2 83/18/2 84/6/2
f 82/17/2 84/6/2 79/8/2
f 82/17/2 79/8/2 80/22/2
f 82/17/2 80/22/2 81/16/2
s 1
f 86/23/3 88/24/3 87/25/3 85/1/3
f 88/24/3 90/26/4 89/27/4 87/25/3
f 90/26/4 92/28/4 91/29/4 89/27/4
f 92/28/4 94/30/3 93/31/3 91/29/4
f 94/30/3 96/32/5 95/33/5 93/31/3
f 96/32/5 98/34/6 97/35/6 95/33/5
f 98/34/6 100/36/6 99/37/6 97/35/6
f 100/36/6 102/38/6 101/39/6 99/37/6
f 102/38/6 104/40/6 103/41/6 101/39/6
f 104/40/6 106/42/5 105/43/5 103/41/6
f 106/42/5 108/44/5 107/45/5 105/43/5
f 108/44/5 110/46/6 109/47/6 107/45/5
f 110/46/6 112/48/4 111/49/4 109/47/6
f 112/48/4 114/50/3 113/51/3 111/49/4
f 114/50/3 116/52/3 115/53/3 113/51/3
f 116/52/3 86/54/3 85/6/3 115/53/3
f 118/23/4 120/55/4 119/56/4 117/1/4
f 120/55/4 122/57/4 121/58/4 119/56/4
f 122/57/4 124/30/3 123/31/3 121/58/4
f 124/30/3 126/59/3 125/5/3 123/31/3
f 126/59/3 128/60/3 127/61/3 125/5/3
f 128/60/3 130/38/5 129/39/5 127/61/3
f 130/38/5 132/62/6 131/63/6 129/39/5
f 132/62/6 134/64/6 133/8/6 131/63/6
f 134/64/6 136/46/5 135/47/5 133/8/6
f 136/46/5 138/65/5 137/66/5 135/47/5
f 138/65/5 140/67/6 139/68/6 137/66/5
f 140/67/6 118/54/4 117/6/4 139/68/6
f 142/23/6 144/30/5 143/31/5 141/1/6
f 144/30/5 146/38/3 145/39/3 143/31/5
f 146/38/3 148/46/4 147/47/4 145/39/3
f 148/46/4 142/54/6 141/6/6 147/47/4
f 150/23/4 152/69/3 151/70/3 149/1/4
f 152/69/3 154/71/5 153/15/5 151/70/3
f 154/71/5 156/72/5 155/73/5 153/15/5
f 156/72/5 158/74/5 157/12/5 155/73/5
f 158/74/5 160/38/6 159/39/6 157/12/5
f 160/38/6 162/75/4 161/20/4 159/39/6
f 162/75/4 164/76/4 163/77/4 161/20/4
f 164/76/4 166/78/6 165/16/6 163/77/4
f 166/78/6 168/79/6 167/80/6 165/16/6
f 168/79/6 150/54/4 149/6/4 167/80/6
