<svg width="800" height="800" viewBox="0 0 800 800" fill="none" xmlns="http://www.w3.org/2000/svg">
<path d="M783 401.382L655.794 622H400.5H145.206L18 401.382H178.774V240.773L320.113 320.652L400.5 179L480.246 320.652L620.46 240.773V401.382H783Z" fill="white"/>
<path d="M400.5 622H145.206L18 401.382H178.774M400.5 622H655.794L783 401.382H620.46M400.5 622L528.589 401.382H620.46M400.5 622L336.456 511.691L272.411 401.382H178.774M620.46 401.382V240.773L480.246 320.652M178.774 401.382V240.773L320.113 320.652M320.113 320.652L400.5 366.084L480.246 320.652M320.113 320.652L400.5 179L480.246 320.652" stroke="none" stroke-width="32"/>
</svg>
